<svg xmlns="http://www.w3.org/2000/svg" width="28.571" height="25" viewBox="0 0 28.571 25">
  <path id="film-solid" d="M0,35.571A3.575,3.575,0,0,1,3.571,32H25a3.575,3.575,0,0,1,3.571,3.571V53.429A3.575,3.575,0,0,1,25,57H3.571A3.575,3.575,0,0,1,0,53.429ZM2.679,50.75v1.786a.9.9,0,0,0,.893.893H5.357a.9.9,0,0,0,.893-.893V50.75a.9.9,0,0,0-.893-.893H3.571A.9.9,0,0,0,2.679,50.75Zm20.536-.893a.9.9,0,0,0-.893.893v1.786a.9.9,0,0,0,.893.893H25a.9.9,0,0,0,.893-.893V50.75A.9.9,0,0,0,25,49.857ZM2.679,43.607v1.786a.9.9,0,0,0,.893.893H5.357a.9.9,0,0,0,.893-.893V43.607a.9.9,0,0,0-.893-.893H3.571A.9.9,0,0,0,2.679,43.607Zm20.536-.893a.9.9,0,0,0-.893.893v1.786a.9.9,0,0,0,.893.893H25a.9.9,0,0,0,.893-.893V43.607A.9.9,0,0,0,25,42.714ZM2.679,36.464V38.25a.9.9,0,0,0,.893.893H5.357a.9.9,0,0,0,.893-.893V36.464a.9.9,0,0,0-.893-.893H3.571A.9.9,0,0,0,2.679,36.464Zm20.536-.893a.9.9,0,0,0-.893.893V38.25a.9.9,0,0,0,.893.893H25a.9.9,0,0,0,.893-.893V36.464A.9.9,0,0,0,25,35.571ZM8.929,37.357v3.571a1.784,1.784,0,0,0,1.786,1.786h7.143a1.784,1.784,0,0,0,1.786-1.786V37.357a1.784,1.784,0,0,0-1.786-1.786H10.714A1.784,1.784,0,0,0,8.929,37.357Zm1.786,8.929a1.784,1.784,0,0,0-1.786,1.786v3.571a1.784,1.784,0,0,0,1.786,1.786h7.143a1.784,1.784,0,0,0,1.786-1.786V48.071a1.784,1.784,0,0,0-1.786-1.786Z" transform="translate(0 -32)"/>
</svg>
