<svg xmlns="http://www.w3.org/2000/svg" width="25.143" height="22" viewBox="0 0 25.143 22">
  <path id="headphones-solid" d="M12.571,34.357A10.216,10.216,0,0,0,2.436,43.295,3.966,3.966,0,0,1,3.929,43a2.358,2.358,0,0,1,2.357,2.357v6.286A2.358,2.358,0,0,1,3.929,54,3.927,3.927,0,0,1,0,50.071v-5.5a12.571,12.571,0,0,1,25.143,0v5.5A3.927,3.927,0,0,1,21.214,54a2.358,2.358,0,0,1-2.357-2.357V45.357A2.358,2.358,0,0,1,21.214,43a3.873,3.873,0,0,1,1.493.295A10.216,10.216,0,0,0,12.571,34.357Z" transform="translate(0 -32)"/>
</svg>
