<svg xmlns="http://www.w3.org/2000/svg" width="32.257" height="30.171" viewBox="0 0 32.257 30.171">
  <path id="link-solid" d="M41.723,31.342A6.149,6.149,0,0,0,33.8,21.991l-.068.047a1.359,1.359,0,0,0,1.582,2.211l.068-.047A3.427,3.427,0,0,1,39.8,29.416L35.025,34.2a3.427,3.427,0,0,1-5.214-4.414l.047-.068a1.359,1.359,0,0,0-2.211-1.582L27.6,28.2a6.146,6.146,0,0,0,9.347,7.918Zm-22.1-1A6.149,6.149,0,0,0,27.549,39.7l.068-.047a1.359,1.359,0,0,0-1.582-2.211l-.068.047a3.429,3.429,0,0,1-4.414-5.218l4.771-4.776a3.429,3.429,0,0,1,5.214,4.418l-.047.068A1.359,1.359,0,0,0,33.7,33.562l.047-.068A6.147,6.147,0,0,0,24.4,25.572Z" transform="translate(-25.859 3.71) rotate(-30)"/>
</svg>
