<svg xmlns="http://www.w3.org/2000/svg" width="17.188" height="25" viewBox="0 0 17.188 25">
  <path id="microphone-lines-solid" d="M19.906,4.688V12.5a4.688,4.688,0,0,0,9.375,0H25.375a.781.781,0,0,1,0-1.562h3.906V9.375H25.375a.781.781,0,0,1,0-1.562h3.906V6.25H25.375a.781.781,0,0,1,0-1.562h3.906a4.688,4.688,0,0,0-9.375,0Zm10.938,7.031V12.5a6.25,6.25,0,0,1-12.5,0V10.547a1.172,1.172,0,0,0-2.344,0V12.5a8.6,8.6,0,0,0,7.422,8.516v1.641H21.078a1.172,1.172,0,0,0,0,2.344h7.031a1.172,1.172,0,0,0,0-2.344H25.766V21.016A8.6,8.6,0,0,0,33.188,12.5V10.547a1.172,1.172,0,0,0-2.344,0Z" transform="translate(-16)"/>
</svg>
