<svg xmlns="http://www.w3.org/2000/svg" width="30.777" height="25" viewBox="0 0 30.777 25">
  <path id="twitter" d="M27.615,54.233c.018.271.018.547.018.818C27.633,63.388,21.285,73,9.684,73A17.8,17.8,0,0,1,0,70.169a12.69,12.69,0,0,0,1.521.078,12.658,12.658,0,0,0,7.832-2.693,6.321,6.321,0,0,1-5.9-4.376,7.755,7.755,0,0,0,1.19.1,6.609,6.609,0,0,0,1.659-.216A6.3,6.3,0,0,1,1.25,56.866v-.078a6.315,6.315,0,0,0,2.849.8,6.319,6.319,0,0,1-1.954-8.44,17.919,17.919,0,0,0,13.008,6.6A7.213,7.213,0,0,1,15,54.306,6.315,6.315,0,0,1,25.914,49.99a12.361,12.361,0,0,0,4-1.521,6.3,6.3,0,0,1-2.771,3.474,12.711,12.711,0,0,0,3.631-.974,13.7,13.7,0,0,1-3.162,3.264Z" transform="translate(0 -48)" fill="#fff"/>
</svg>
