<svg xmlns="http://www.w3.org/2000/svg" width="35.56" height="25" viewBox="0 0 35.56 25">
  <path id="youtube" d="M49.718,67.913a4.463,4.463,0,0,0-3.145-3.164C43.8,64,32.68,64,32.68,64s-11.12,0-13.893.749a4.463,4.463,0,0,0-3.145,3.164c-.742,2.793-.742,8.613-.742,8.613s0,5.82.742,8.613a4.395,4.395,0,0,0,3.145,3.112C21.56,89,32.68,89,32.68,89s11.12,0,13.893-.749a4.406,4.406,0,0,0,3.145-3.112c.742-2.793.742-8.613.742-8.613S50.46,70.706,49.718,67.913Zm-20.671,13.9V71.24l9.29,5.286Z" transform="translate(-14.9 -64)" fill="#fff"/>
</svg>
